<?xml version="1.0" encoding="UTF-8"?>
<svg width="826.49pt" height="278.56pt" version="1.1" viewBox="0 0 826.49 278.56" xmlns="http://www.w3.org/2000/svg">
 <defs>
  <clipPath id="clip-0">
   <path d="m0.14062 13h829.86v582h-829.86z"/>
  </clipPath>
 </defs>
 <g transform="matrix(.96711 0 0 1.0001 36.295 7.2849)" fill="none" stroke="#000" stroke-linecap="round" stroke-linejoin="round" stroke-miterlimit="10" stroke-width=".84">
  <path d="m125.71 136.73v-93.328"/>
  <path d="m671.71 43.404v93.328"/>
  <path d="m214.09 78.744v2.3398"/>
  <path d="m214.09 82.193v2.25"/>
  <path d="m214.09 85.583v2.25"/>
  <path d="m214.09 88.943v2.25"/>
  <path d="m214.09 92.333v2.25"/>
  <path d="m214.09 95.693v2.25"/>
  <path d="m214.09 99.083v2.3086"/>
  <path d="m91.872 90.083h38.52"/>
  <path d="m139.39 90.083h9"/>
  <path d="m157.39 90.083h45"/>
  <path d="m211.39 90.083h9"/>
  <path d="m229.39 90.083h45"/>
  <path d="m283.39 90.083h9"/>
  <path d="m301.39 90.083h45"/>
  <path d="m355.39 90.083h9"/>
  <path d="m373.36 90.083h45"/>
  <path d="m427.36 90.083h9"/>
  <path d="m445.36 90.083h45"/>
  <path d="m499.36 90.083h9"/>
  <path d="m517.36 90.083h45"/>
  <path d="m571.36 90.083h9"/>
  <path d="m589.36 90.083h45"/>
  <path d="m643.36 90.083h9"/>
  <path d="m661.36 90.083h38.523"/>
  <path d="m671.71 43.404h-546"/>
  <path d="m113.92 83.275 11.789 6.8086-11.789 6.7813"/>
  <path d="m214.09 78.744h1.8594"/>
  <path d="m217.06 78.744h2.25"/>
  <path d="m220.45 78.744h2.25"/>
  <path d="m223.81 78.744h2.25"/>
  <path d="m227.2 78.744h2.25"/>
  <path d="m230.56 78.744h2.25"/>
  <path d="m233.95 78.744h2.25"/>
  <path d="m237.31 78.744h2.25"/>
  <path d="m240.7 78.744h2.25"/>
  <path d="m244.06 78.744h2.25"/>
  <path d="m247.45 78.744h2.25"/>
  <path d="m250.81 78.744h2.25"/>
  <path d="m254.2 78.744h2.25"/>
  <path d="m257.56 78.744h2.25"/>
  <path d="m260.95 78.744h2.25"/>
  <path d="m264.31 78.744h2.25"/>
  <path d="m267.7 78.744h2.25"/>
  <path d="m271.06 78.744h2.25"/>
  <path d="m274.45 78.744h2.25"/>
  <path d="m277.81 78.744h2.25"/>
  <path d="m281.2 78.744h2.25"/>
  <path d="m284.56 78.744h2.25"/>
  <path d="m287.95 78.744h2.25"/>
  <path d="m291.31 78.744h2.25"/>
  <path d="m294.7 78.744h2.25"/>
  <path d="m298.06 78.744h2.25"/>
  <path d="m301.45 78.744h2.25"/>
  <path d="m304.81 78.744h2.25"/>
  <path d="m308.2 78.744h2.25"/>
  <path d="m311.56 78.744h2.25"/>
  <path d="m314.95 78.744h2.25"/>
  <path d="m318.31 78.744h2.25"/>
  <path d="m321.7 78.744h2.25"/>
  <path d="m325.06 78.744h2.25"/>
  <path d="m328.45 78.744h2.25"/>
  <path d="m331.81 78.744h2.25"/>
  <path d="m335.2 78.744h2.25"/>
  <path d="m338.56 78.744h2.25"/>
  <path d="m341.95 78.744h2.25"/>
  <path d="m345.31 78.744h2.25"/>
  <path d="m348.7 78.744h2.25"/>
  <path d="m352.06 78.744h2.25"/>
  <path d="m355.45 78.744h2.25"/>
  <path d="m358.81 78.744h2.25"/>
  <path d="m362.2 78.744h2.25"/>
  <path d="m365.56 78.744h2.25"/>
  <path d="m368.95 78.744h2.25"/>
  <path d="m372.31 78.744h2.25"/>
  <path d="m375.7 78.744h2.25"/>
  <path d="m379.06 78.744h2.25"/>
  <path d="m382.42 78.744h2.25"/>
  <path d="m385.81 78.744h2.25"/>
  <path d="m389.17 78.744h2.25"/>
  <path d="m392.56 78.744h2.25"/>
  <path d="m395.92 78.744h2.25"/>
  <path d="m399.31 78.744h2.25"/>
  <path d="m402.67 78.744h2.25"/>
  <path d="m406.06 78.744h2.25"/>
  <path d="m409.42 78.744h2.25"/>
  <path d="m412.81 78.744h2.25"/>
  <path d="m416.17 78.744h2.25"/>
  <path d="m419.56 78.744h2.25"/>
  <path d="m422.92 78.744h2.25"/>
  <path d="m426.31 78.744h2.25"/>
  <path d="m429.67 78.744h2.25"/>
  <path d="m433.06 78.744h2.25"/>
  <path d="m436.42 78.744h2.25"/>
  <path d="m439.81 78.744h2.25"/>
  <path d="m443.17 78.744h2.25"/>
  <path d="m446.56 78.744h2.25"/>
  <path d="m449.92 78.744h2.25"/>
  <path d="m453.31 78.744h2.25"/>
  <path d="m456.67 78.744h2.25"/>
  <path d="m460.06 78.744h2.25"/>
  <path d="m463.42 78.744h2.25"/>
  <path d="m466.81 78.744h2.25"/>
  <path d="m470.17 78.744h2.25"/>
  <path d="m473.56 78.744h2.25"/>
  <path d="m476.92 78.744h2.25"/>
  <path d="m480.31 78.744h2.25"/>
  <path d="m483.67 78.744h2.25"/>
  <path d="m487.06 78.744h2.25"/>
  <path d="m490.42 78.744h2.25"/>
  <path d="m493.81 78.744h2.25"/>
  <path d="m497.17 78.744h2.25"/>
  <path d="m500.56 78.744h2.25"/>
  <path d="m503.92 78.744h2.25"/>
  <path d="m507.31 78.744h2.25"/>
  <path d="m510.67 78.744h2.25"/>
  <path d="m514.06 78.744h2.25"/>
  <path d="m517.42 78.744h2.25"/>
  <path d="m520.81 78.744h2.25"/>
  <path d="m524.17 78.744h2.25"/>
  <path d="m527.56 78.744h2.25"/>
  <path d="m530.92 78.744h2.25"/>
  <path d="m534.31 78.744h2.25"/>
  <path d="m537.67 78.744h2.25"/>
  <path d="m541.06 78.744h2.25"/>
  <path d="m544.42 78.744h2.25"/>
  <path d="m547.81 78.744h2.25"/>
  <path d="m551.17 78.744h2.25"/>
  <path d="m554.56 78.744h2.25"/>
  <path d="m557.92 78.744h2.25"/>
  <path d="m561.31 78.744h2.25"/>
  <path d="m564.67 78.744h2.25"/>
  <path d="m568.06 78.744h2.25"/>
  <path d="m571.42 78.744h2.25"/>
  <path d="m574.81 78.744h2.25"/>
  <path d="m578.17 78.744h2.25"/>
  <path d="m581.56 78.744h2.25"/>
  <path d="m584.92 78.744h2.25"/>
  <path d="m588.31 78.744h2.25"/>
  <path d="m591.67 78.744h2.25"/>
  <path d="m595.06 78.744h2.25"/>
  <path d="m598.42 78.744h2.25"/>
  <path d="m601.81 78.744h2.25"/>
  <path d="m605.17 78.744h2.25"/>
  <path d="m608.56 78.744h2.25"/>
  <path d="m611.92 78.744h2.25"/>
  <path d="m615.31 78.744h2.25"/>
  <path d="m618.67 78.744h2.25"/>
  <path d="m622.06 78.744h2.25"/>
  <path d="m625.42 78.744h2.25"/>
  <path d="m628.81 78.744h2.25"/>
  <path d="m632.17 78.744h2.25"/>
  <path d="m635.56 78.744h2.25"/>
  <path d="m638.92 78.744h2.25"/>
  <path d="m642.31 78.744h2.25"/>
  <path d="m645.67 78.744h2.25"/>
  <path d="m649.06 78.744h2.25"/>
  <path d="m652.42 78.744h2.25"/>
  <path d="m655.81 78.744h2.25"/>
  <path d="m659.17 78.744h2.25"/>
  <path d="m662.53 78.744h2.25"/>
  <path d="m665.92 78.744h1.8594"/>
  <path d="m671.71 78.744v2.3398"/>
  <path d="m671.71 82.193v2.25"/>
  <path d="m671.71 85.583v2.25"/>
  <path d="m671.71 88.943v2.25"/>
  <path d="m671.71 92.333v2.25"/>
  <path d="m671.71 95.693v2.25"/>
  <path d="m671.71 99.083v2.3086"/>
  <path d="m671.71 76.494-1.4688 0.83982"/>
  <path d="m669.25 77.904-1.4688 0.83985"/>
  <path d="m671.71 103.67-1.4688-0.87108"/>
  <path d="m669.25 102.26-1.4688-0.87108"/>
  <path d="m214.09 101.39h1.8594"/>
  <path d="m217.06 101.39h2.25"/>
  <path d="m220.45 101.39h2.25"/>
  <path d="m223.81 101.39h2.25"/>
  <path d="m227.2 101.39h2.25"/>
  <path d="m230.56 101.39h2.25"/>
  <path d="m233.95 101.39h2.25"/>
  <path d="m237.31 101.39h2.25"/>
  <path d="m240.7 101.39h2.25"/>
  <path d="m244.06 101.39h2.25"/>
  <path d="m247.45 101.39h2.25"/>
  <path d="m250.81 101.39h2.25"/>
  <path d="m254.2 101.39h2.25"/>
  <path d="m257.56 101.39h2.25"/>
  <path d="m260.95 101.39h2.25"/>
  <path d="m264.31 101.39h2.25"/>
  <path d="m267.7 101.39h2.25"/>
  <path d="m271.06 101.39h2.25"/>
  <path d="m274.45 101.39h2.25"/>
  <path d="m277.81 101.39h2.25"/>
  <path d="m281.2 101.39h2.25"/>
  <path d="m284.56 101.39h2.25"/>
  <path d="m287.95 101.39h2.25"/>
  <path d="m291.31 101.39h2.25"/>
  <path d="m294.7 101.39h2.25"/>
  <path d="m298.06 101.39h2.25"/>
  <path d="m301.45 101.39h2.25"/>
  <path d="m304.81 101.39h2.25"/>
  <path d="m308.2 101.39h2.25"/>
  <path d="m311.56 101.39h2.25"/>
  <path d="m314.95 101.39h2.25"/>
  <path d="m318.31 101.39h2.25"/>
  <path d="m321.7 101.39h2.25"/>
  <path d="m325.06 101.39h2.25"/>
  <path d="m328.45 101.39h2.25"/>
  <path d="m331.81 101.39h2.25"/>
  <path d="m335.2 101.39h2.25"/>
  <path d="m338.56 101.39h2.25"/>
  <path d="m341.95 101.39h2.25"/>
  <path d="m345.31 101.39h2.25"/>
  <path d="m348.7 101.39h2.25"/>
  <path d="m352.06 101.39h2.25"/>
  <path d="m355.45 101.39h2.25"/>
  <path d="m358.81 101.39h2.25"/>
  <path d="m362.2 101.39h2.25"/>
  <path d="m365.56 101.39h2.25"/>
  <path d="m368.95 101.39h2.25"/>
  <path d="m372.31 101.39h2.25"/>
  <path d="m375.7 101.39h2.25"/>
  <path d="m379.06 101.39h2.25"/>
  <path d="m382.42 101.39h2.25"/>
  <path d="m385.81 101.39h2.25"/>
  <path d="m389.17 101.39h2.25"/>
  <path d="m392.56 101.39h2.25"/>
  <path d="m395.92 101.39h2.25"/>
  <path d="m399.31 101.39h2.25"/>
  <path d="m402.67 101.39h2.25"/>
  <path d="m406.06 101.39h2.25"/>
  <path d="m409.42 101.39h2.25"/>
  <path d="m412.81 101.39h2.25"/>
  <path d="m416.17 101.39h2.25"/>
  <path d="m419.56 101.39h2.25"/>
  <path d="m422.92 101.39h2.25"/>
  <path d="m426.31 101.39h2.25"/>
  <path d="m429.67 101.39h2.25"/>
  <path d="m433.06 101.39h2.25"/>
  <path d="m436.42 101.39h2.25"/>
  <path d="m439.81 101.39h2.25"/>
  <path d="m443.17 101.39h2.25"/>
  <path d="m446.56 101.39h2.25"/>
  <path d="m449.92 101.39h2.25"/>
  <path d="m453.31 101.39h2.25"/>
  <path d="m456.67 101.39h2.25"/>
  <path d="m460.06 101.39h2.25"/>
  <path d="m463.42 101.39h2.25"/>
  <path d="m466.81 101.39h2.25"/>
  <path d="m470.17 101.39h2.25"/>
  <path d="m473.56 101.39h2.25"/>
  <path d="m476.92 101.39h2.25"/>
  <path d="m480.31 101.39h2.25"/>
  <path d="m483.67 101.39h2.25"/>
  <path d="m487.06 101.39h2.25"/>
  <path d="m490.42 101.39h2.25"/>
  <path d="m493.81 101.39h2.25"/>
  <path d="m497.17 101.39h2.25"/>
  <path d="m500.56 101.39h2.25"/>
  <path d="m503.92 101.39h2.25"/>
  <path d="m507.31 101.39h2.25"/>
  <path d="m510.67 101.39h2.25"/>
  <path d="m514.06 101.39h2.25"/>
  <path d="m517.42 101.39h2.25"/>
  <path d="m520.81 101.39h2.25"/>
  <path d="m524.17 101.39h2.25"/>
  <path d="m527.56 101.39h2.25"/>
  <path d="m530.92 101.39h2.25"/>
  <path d="m534.31 101.39h2.25"/>
  <path d="m537.67 101.39h2.25"/>
  <path d="m541.06 101.39h2.25"/>
  <path d="m544.42 101.39h2.25"/>
  <path d="m547.81 101.39h2.25"/>
  <path d="m551.17 101.39h2.25"/>
  <path d="m554.56 101.39h2.25"/>
  <path d="m557.92 101.39h2.25"/>
  <path d="m561.31 101.39h2.25"/>
  <path d="m564.67 101.39h2.25"/>
  <path d="m568.06 101.39h2.25"/>
  <path d="m571.42 101.39h2.25"/>
  <path d="m574.81 101.39h2.25"/>
  <path d="m578.17 101.39h2.25"/>
  <path d="m581.56 101.39h2.25"/>
  <path d="m584.92 101.39h2.25"/>
  <path d="m588.31 101.39h2.25"/>
  <path d="m591.67 101.39h2.25"/>
  <path d="m595.06 101.39h2.25"/>
  <path d="m598.42 101.39h2.25"/>
  <path d="m601.81 101.39h2.25"/>
  <path d="m605.17 101.39h2.25"/>
  <path d="m608.56 101.39h2.25"/>
  <path d="m611.92 101.39h2.25"/>
  <path d="m615.31 101.39h2.25"/>
  <path d="m618.67 101.39h2.25"/>
  <path d="m622.06 101.39h2.25"/>
  <path d="m625.42 101.39h2.25"/>
  <path d="m628.81 101.39h2.25"/>
  <path d="m632.17 101.39h2.25"/>
  <path d="m635.56 101.39h2.25"/>
  <path d="m638.92 101.39h2.25"/>
  <path d="m642.31 101.39h2.25"/>
  <path d="m645.67 101.39h2.25"/>
  <path d="m649.06 101.39h2.25"/>
  <path d="m652.42 101.39h2.25"/>
  <path d="m655.81 101.39h2.25"/>
  <path d="m659.17 101.39h2.25"/>
  <path d="m662.53 101.39h2.25"/>
  <path d="m665.92 101.39h1.8594"/>
  <path d="m667.78 78.744v2.3398"/>
  <path d="m667.78 82.193v2.25"/>
  <path d="m667.78 85.583v2.25"/>
  <path d="m667.78 88.943v2.25"/>
  <path d="m667.78 92.333v2.25"/>
  <path d="m667.78 95.693v2.25"/>
  <path d="m667.78 99.083v2.3086"/>
  <path d="m214.09 101.39-1.3203-2.25"/>
  <path d="m212.23 98.185-1.1406-1.9531"/>
  <path d="m210.52 95.244-1.1094-1.9492"/>
  <path d="m208.84 92.333-1.289-2.25"/>
  <path d="m214.09 78.744-1.3203 2.25"/>
  <path d="m212.23 81.982-1.1406 1.9531"/>
  <path d="m210.52 84.892-1.1094 1.9492"/>
  <path d="m208.84 87.833-1.289 2.25"/>
  <path d="m671.71 136.73h-546"/>
  <path d="m242.77 90.083-46.859 27.031"/>
  <path d="m188.14 121.61-7.8008 4.5"/>
  <path d="m172.54 130.61-46.832 27.059"/>
  <path d="m214.09 101.39-2.3672 1.3828"/>
  <path d="m210.76 103.31-1.9492 1.1406"/>
  <path d="m207.82 105.02-1.9492 1.1094"/>
  <path d="m204.91 106.7-1.9492 1.1094"/>
  <path d="m202 108.38-1.9492 1.1406"/>
  <path d="m199.06 110.06-1.9531 1.1406"/>
  <path d="m196.15 111.77-1.9531 1.1094"/>
  <path d="m193.21 113.45-1.9492 1.1094"/>
  <path d="m190.3 115.13-1.9492 1.1406"/>
  <path d="m187.36 116.81-1.9492 1.1406"/>
  <path d="m184.45 118.52-1.9492 1.1094"/>
  <path d="m181.54 120.2-1.9532 1.1094"/>
  <path d="m178.6 121.88-1.9492 1.1406"/>
  <path d="m175.69 123.56-1.9492 1.1406"/>
  <path d="m172.75 125.27-1.9492 1.1094"/>
  <path d="m169.84 126.95-1.9492 1.1094"/>
  <path d="m166.9 128.63-1.9219 1.1406"/>
  <path d="m163.99 130.31-1.9492 1.1406"/>
  <path d="m161.08 132.02-1.9492 1.1094"/>
  <path d="m158.14 133.7-1.9492 1.1094"/>
  <path d="m155.23 135.38-2.3711 1.3476"/>
  <path d="m232.21 101.39-2.3711 1.3828"/>
  <path d="m228.88 103.31-1.9531 1.1406"/>
  <path d="m225.97 105.02-1.9531 1.1094"/>
  <path d="m223.03 106.7-1.9492 1.1094"/>
  <path d="m220.12 108.38-1.9492 1.1406"/>
  <path d="m217.18 110.06-1.9492 1.1406"/>
  <path d="m214.27 111.77-1.9492 1.1094"/>
  <path d="m211.33 113.45-1.9492 1.1094"/>
  <path d="m208.42 115.13-1.9492 1.1406"/>
  <path d="m205.51 116.81-1.9492 1.1406"/>
  <path d="m202.57 118.52-1.9492 1.1094"/>
  <path d="m199.66 120.2-1.9492 1.1094"/>
  <path d="m196.72 121.88-1.9531 1.1406"/>
  <path d="m193.81 123.56-1.9531 1.1406"/>
  <path d="m190.87 125.27-1.9492 1.1094"/>
  <path d="m187.96 126.95-1.9492 1.1094"/>
  <path d="m185.05 128.63-1.9492 1.1406"/>
  <path d="m182.11 130.31-1.9492 1.1406"/>
  <path d="m179.2 132.02-1.9492 1.1094"/>
  <path d="m176.26 133.7-1.9492 1.1094"/>
  <path d="m173.35 135.38-2.3711 1.3476"/>
  <path d="m242.77 90.083-46.859-27.059"/>
  <path d="m188.14 58.525-7.8008-4.5"/>
  <path d="m172.54 49.525-46.832-27.031"/>
  <path d="m710.62 90.083 39.238-22.68v9.0898h58.922v27.18h-58.922v9.0586l-39.238-22.648"/>
  <path d="m5.3209 227.15 22.652-39.242 4.5274 7.8633 76.531-44.191 13.59 23.551-76.531 44.187 4.5313 7.832h-45.301"/>
 </g>
 <g transform="matrix(.99681 0 0 .47885 -.14017 -6.3543)" clip-path="url(#clip-0)">
  <path transform="matrix(0 -.03 -.03 0 842 595)" d="m0 426.04h19389v27635" fill="none" stroke="#000" stroke-linecap="round" stroke-linejoin="round" stroke-miterlimit="10" stroke-width="4"/>
 </g>
</svg>
