<?xml version="1.0" encoding="UTF-8"?>
<svg width="819.81pt" height="403.41pt" version="1.1" viewBox="0 0 819.81 403.41" xmlns="http://www.w3.org/2000/svg">
 <defs>
  <clipPath id="clip-0">
   <path d="m0.14062 13h829.86v582h-829.86z"/>
  </clipPath>
 </defs>
 <g transform="translate(-.00047994 28.647)" fill="none" stroke="#000" stroke-linecap="round" stroke-linejoin="round" stroke-miterlimit="10" stroke-width=".84">
  <path d="m17.289 337.25h162.6"/>
  <path d="m17.289 132.29h162.6"/>
  <path d="m-24.8 234.77h14.008"/>
  <path d="m-6.2926 234.77h4.5"/>
  <path d="m2.7074 234.77h22.5"/>
  <path d="m29.707 234.77h4.5"/>
  <path d="m38.707 234.77h22.5"/>
  <path d="m65.707 234.77h4.5"/>
  <path d="m74.707 234.77h22.5"/>
  <path d="m101.71 234.77h4.5"/>
  <path d="m110.71 234.77h22.5"/>
  <path d="m137.71 234.77h4.5"/>
  <path d="m146.71 234.77h22.5"/>
  <path d="m173.71 234.77h4.5"/>
  <path d="m182.71 234.77h22.5"/>
  <path d="m209.71 234.77h4.4688"/>
  <path d="m218.68 234.77h22.5"/>
  <path d="m245.68 234.77h4.5"/>
  <path d="m254.68 234.77h22.5"/>
  <path d="m281.68 234.77h4.5"/>
  <path d="m290.68 234.77h22.5"/>
  <path d="m317.68 234.77h4.5"/>
  <path d="m326.68 234.77h14.012"/>
  <path d="m277.24 188.66 5.1289 5.1289v81.961"/>
  <path d="m179.89 132.29v56.371"/>
  <path d="m179.89 188.66h97.352v92.219"/>
  <path d="m282.37 187.37v-131.28"/>
  <path d="m179.89 125.91v-69.812"/>
  <path d="m259.81 68.905h-57.359"/>
  <path d="m259.81 62.843 22.559 6.0625-22.559 6.0274"/>
  <path d="m282.37 68.905h-22.559"/>
  <path d="m202.45 74.933-22.562-6.0274 22.562-6.0625"/>
  <path d="m179.89 68.905h22.562"/>
  <path d="m613.57 234.76c0-56.59-45.875-102.46-102.46-102.46-56.59 0-102.46 45.875-102.46 102.46 0 56.59 45.875 102.46 102.46 102.46 56.59 0 102.46-45.875 102.46-102.46"/>
  <path d="m422.5 260.37c11.41 39.445 47.535 66.594 88.605 66.594 41.074 0 77.195-27.148 88.605-66.594"/>
  <path d="m599.71 209.15c-11.41-39.445-47.531-66.594-88.605-66.594-41.07 0-77.195 27.148-88.605 66.594"/>
  <path d="m411.91 209.16h198.42"/>
  <path d="m411.91 260.39h198.42"/>
  <path d="m378.58 234.77h17.789"/>
  <path d="m400.87 234.77h4.5"/>
  <path d="m409.87 234.77h22.5"/>
  <path d="m436.87 234.77h4.5"/>
  <path d="m445.87 234.77h22.5"/>
  <path d="m472.87 234.77h4.5"/>
  <path d="m481.87 234.77h22.5"/>
  <path d="m508.87 234.77h4.5"/>
  <path d="m517.87 234.77h22.5"/>
  <path d="m544.87 234.77h4.5"/>
  <path d="m553.87 234.77h22.5"/>
  <path d="m580.87 234.77h4.5"/>
  <path d="m589.87 234.77h22.469"/>
  <path d="m616.84 234.77h4.5"/>
  <path d="m625.84 234.77h17.793"/>
  <path d="m511.12 367.32v-17.793"/>
  <path d="m511.12 345.02v-4.5"/>
  <path d="m511.12 336.02v-22.5"/>
  <path d="m511.12 309.02v-4.5"/>
  <path d="m511.12 300.02v-22.5"/>
  <path d="m511.12 273.02v-4.5"/>
  <path d="m511.12 264.02v-22.5"/>
  <path d="m511.12 237.02v-4.5"/>
  <path d="m511.12 228.02v-22.5"/>
  <path d="m511.12 201.02v-4.5"/>
  <path d="m511.12 192.02v-22.5"/>
  <path d="m511.12 165.02v-4.5"/>
  <path d="m511.12 156.02v-22.5"/>
  <path d="m511.12 129.02v-4.5"/>
  <path d="m511.12 120.02v-17.789"/>
  <path d="m472.18 247.93c0-5.6602-4.5859-10.246-10.242-10.246-5.6602 0-10.246 4.5859-10.246 10.246 0 5.6562 4.5859 10.246 10.246 10.246 5.6562 0 10.242-4.5898 10.242-10.246"/>
  <path d="m443.95 252.77 11.488-3.0898"/>
  <path d="m459.79 248.54 4.3203-1.168"/>
  <path d="m468.46 246.2 11.492-3.0898"/>
  <path d="m466.78 265.94-3.0898-11.492"/>
  <path d="m462.52 250.13-1.1406-4.3477"/>
  <path d="m460.21 241.43-3.0898-11.488"/>
  <path d="m570.49 221.59c0-5.6602-4.5859-10.246-10.246-10.246-5.6562 0-10.246 4.5859-10.246 10.246 0 5.6562 4.5898 10.246 10.246 10.246 5.6602 0 10.246-4.5898 10.246-10.246"/>
  <path d="m578.29 216.77-11.492 3.0898"/>
  <path d="m562.45 221.03-4.3516 1.1406"/>
  <path d="m553.75 223.34-11.488 3.0898"/>
  <path d="m565.09 239.6-3.0586-11.492"/>
  <path d="m560.86 223.76-1.1719-4.3203"/>
  <path d="m558.52 215.09-3.0625-11.488"/>
  <path d="m516.22 234.76c0-2.8242-2.293-5.1133-5.1172-5.1133s-5.1133 2.2891-5.1133 5.1133c0 2.8281 2.2891 5.1172 5.1133 5.1172s5.1172-2.2891 5.1172-5.1172"/>
  <path d="m521.98 234.76c0-6.0039-4.8672-10.875-10.875-10.875-6.0039 0-10.875 4.8711-10.875 10.875 0 6.0078 4.8711 10.875 10.875 10.875 6.0078 0 10.875-4.8672 10.875-10.875"/>
  <path d="m179.89 337.25v-56.371h97.352l5.1289-5.1289"/>
  <path d="m616.72 260.39h104.46"/>
  <path d="m584.47 215.12 126.3-33.84"/>
  <path d="m707.5 237.85c-0.80859-10.504-2.1875-20.953-4.1211-31.305"/>
  <path d="m713.53 237.62-5.1602 22.77-6.8984-22.289"/>
  <path d="m708.37 260.39-0.8711-22.531"/>
  <path d="m697.51 207.92 0.8711-23.34 10.891 20.637"/>
  <path d="m698.38 184.59 5.0078 21.988"/>
 </g>
 <g transform="matrix(.98875 0 0 .69347 -.13904 -9.2023)" clip-path="url(#clip-0)">
  <path transform="matrix(0 -.03 -.03 0 842 595)" d="m0 426.04h19389v27635" fill="none" stroke="#000" stroke-linecap="round" stroke-linejoin="round" stroke-miterlimit="10" stroke-width="4"/>
 </g>
</svg>
