<?xml version="1.0" encoding="UTF-8"?>
<svg width="799.09pt" height="304.14pt" version="1.1" viewBox="0 0 799.09 304.14" xmlns="http://www.w3.org/2000/svg">
 <defs>
  <clipPath id="clip-0">
   <path d="m0.17188 300h9.8281v2h-9.8281z"/>
  </clipPath>
  <clipPath id="clip-1">
   <path d="m0.14062 13h829.86v582h-829.86z"/>
  </clipPath>
 </defs>
 <path d="m13.358 279.23h184.05" fill="none" stroke="#000" stroke-linecap="round" stroke-linejoin="round" stroke-miterlimit="10" stroke-width=".84"/>
 <path d="m13.358 131.21h184.05l7.4102 7.4102" fill="none" stroke="#000" stroke-linecap="round" stroke-linejoin="round" stroke-miterlimit="10" stroke-width=".84"/>
 <g transform="translate(-9.2202 -95.779)" clip-path="url(#clip-0)">
  <path transform="matrix(0 -.03 -.03 0 842 595)" d="m9800 28060v-308.07" fill="none" stroke="#000" stroke-linecap="round" stroke-linejoin="round" stroke-miterlimit="10" stroke-width="28"/>
 </g>
 <g fill="none" stroke="#000" stroke-linecap="round" stroke-linejoin="round" stroke-miterlimit="10" stroke-width=".84">
  <path d="m4.7212 205.22h4.5"/>
  <path d="m13.721 205.22h22.5"/>
  <path d="m40.721 205.22h4.5"/>
  <path d="m49.721 205.22h22.5"/>
  <path d="m76.721 205.22h4.5"/>
  <path d="m85.721 205.22h22.5"/>
  <path d="m112.72 205.22h4.5"/>
  <path d="m121.72 205.22h22.5"/>
  <path d="m148.72 205.22h4.5"/>
  <path d="m157.72 205.22h22.469"/>
  <path d="m184.69 205.22h4.5"/>
  <path d="m193.69 205.22h22.5"/>
  <path d="m220.69 205.22h4.5"/>
  <path d="m229.69 205.22h17.281"/>
  <path d="m204.82 138.62v48.121"/>
  <path d="m204.82 223.73v48.117l-7.4102 7.3828"/>
  <path d="m197.41 131.21v27.75"/>
  <path d="m197.41 251.48v27.75"/>
  <path d="m204.82 223.73h-11.098v-36.992h11.098"/>
  <path d="m204.82 134v-94.832"/>
  <path d="m193.72 182.09v-142.92"/>
  <path d="m221.11 48.412h16.293"/>
  <path d="m177.43 48.412h-107.49"/>
  <path d="m221.11 52.76-16.289-4.3477h-11.098"/>
  <path d="m221.11 48.412h-16.289l16.289-4.3516"/>
  <path d="m177.43 44.061 16.293 4.3516-16.293 4.3477"/>
  <path d="m193.72 48.412h-16.293"/>
  <path d="m209.44 223.73h124.74"/>
  <path d="m209.44 186.74h124.74"/>
  <path d="m324.91 240.02v16.289"/>
  <path d="m324.91 170.45v-132.12"/>
  <path d="m320.56 240.02 4.3477-16.289v-36.992"/>
  <path d="m324.91 240.02v-16.289l4.3828 16.289"/>
  <path d="m329.29 170.45-4.3828 16.289-4.3477-16.289"/>
  <path d="m324.91 186.74v-16.289"/>
  <path d="m688.09 205.21c0-40.883-33.141-74.023-74.023-74.023-40.883 0-74.023 33.141-74.023 74.023 0 40.883 33.141 74.027 74.023 74.027 40.883 0 74.023-33.145 74.023-74.027"/>
  <path d="m550.07 223.71c8.2383 28.496 34.328 48.113 63.992 48.113 29.664 0 55.754-19.617 63.992-48.113"/>
  <path d="m678.06 186.7c-8.2383-28.496-34.328-48.109-63.992-48.109-29.664 0-55.754 19.613-63.992 48.109"/>
  <path d="m542.41 186.74h143.31"/>
  <path d="m542.41 223.73h143.31"/>
  <path d="m518.35 205.22h16.98"/>
  <path d="m539.83 205.22h4.5"/>
  <path d="m548.83 205.22h22.5"/>
  <path d="m575.83 205.22h4.5"/>
  <path d="m584.83 205.22h22.5"/>
  <path d="m611.83 205.22h4.5"/>
  <path d="m620.83 205.22h22.469"/>
  <path d="m647.8 205.22h4.5"/>
  <path d="m656.8 205.22h22.5"/>
  <path d="m683.8 205.22h4.5"/>
  <path d="m692.8 205.22h17.012"/>
  <path d="m614.08 300.95v-16.98"/>
  <path d="m614.08 279.47v-4.5"/>
  <path d="m614.08 270.47v-22.5"/>
  <path d="m614.08 243.47v-4.5"/>
  <path d="m614.08 234.47v-22.5"/>
  <path d="m614.08 207.47v-4.5"/>
  <path d="m614.08 198.47v-22.5"/>
  <path d="m614.08 171.47v-4.5"/>
  <path d="m614.08 162.47v-22.5"/>
  <path d="m614.08 135.47v-4.5"/>
  <path d="m614.08 126.47v-16.98"/>
  <path d="m584.68 205.21c0-4.082-3.3086-7.3945-7.3945-7.3945-4.082 0-7.3945 3.3125-7.3945 7.3945 0 4.0859 3.3125 7.3945 7.3945 7.3945 4.0859 0 7.3945-3.3086 7.3945-7.3945"/>
  <path d="m563.83 205.22h26.938"/>
  <path d="m577.3 218.69v-26.91"/>
  <path d="m658.21 205.21c0-4.082-3.3086-7.3945-7.3945-7.3945-4.0859 0-7.3945 3.3125-7.3945 7.3945 0 4.0859 3.3086 7.3945 7.3945 7.3945 4.0859 0 7.3945-3.3086 7.3945-7.3945"/>
  <path d="m664.3 205.22h-26.941"/>
  <path d="m650.83 218.69v-26.91"/>
  <path d="m617.77 205.21c0-2.0469-1.6562-3.7031-3.7031-3.7031-2.0469 0-3.707 1.6562-3.707 3.7031 0 2.0469 1.6602 3.707 3.707 3.707 2.0469 0 3.7031-1.6602 3.7031-3.707"/>
  <path d="m621.91 205.21c0-4.332-3.5117-7.8438-7.8438-7.8438s-7.8438 3.5117-7.8438 7.8438 3.5117 7.8438 7.8438 7.8438 7.8438-3.5117 7.8438-7.8438"/>
  <path d="m632.35 188.63-12.602 11.191 5.3125-15.992"/>
  <path d="m619.75 199.82 8.9727-13.59"/>
  <path d="m628.72 186.23 67.199-101.79h99.449"/>
  <path d="m202.06 279.23h242.67"/>
  <path d="m202.06 131.21h242.67"/>
  <path d="m435.49 262.97v-115.47"/>
  <path d="m439.84 262.97-4.3477 16.262-4.3828-16.262"/>
  <path d="m435.49 279.23v-16.262"/>
  <path d="m431.11 147.5 4.3828-16.293 4.3477 16.293"/>
  <path d="m435.49 131.21v16.293"/>
 </g>
 <g transform="matrix(.96376 0 0 .52282 -.13553 -6.9369)" clip-path="url(#clip-1)">
  <path transform="matrix(0 -.03 -.03 0 842 595)" d="m0 426.04h19389v27635" fill="none" stroke="#000" stroke-linecap="round" stroke-linejoin="round" stroke-miterlimit="10" stroke-width="4"/>
 </g>
</svg>
